<svg version="1.1" xmlns="http://www.w3.org/2000/svg" style="display: block;" viewBox="0 0 2048 2048" width="1024" height="1024" preserveAspectRatio="none">
<path transform="translate(0,0)" fill="rgb(242,242,238)" d="M 0 0 L 2048 0 L 2048 2048 L 0 2048 L 0 0 z"/>
<path transform="translate(0,0)" fill="rgb(87,155,186)" d="M 1510.43 771.858 C 1519.61 771.805 1543.76 770.47 1550.5 774.062 C 1553.04 779.381 1551.92 1047.02 1551.93 1074.05 L 1552.01 1191.4 C 1552.02 1211.76 1552.72 1237.97 1551.54 1257.81 C 1545.69 1263.59 1524.23 1261.11 1514.35 1261.97 C 1509.56 1263.75 1507.11 1264.64 1502.87 1261.21 C 1498.08 1250.9 1500.48 1135.25 1500.63 1116.41 L 1500.67 985.79 L 1500.66 846.302 C 1500.66 834.043 1499.7 783.577 1502.27 774.352 C 1505.57 771.565 1505.23 772.448 1510.43 771.858 z"/>
<path transform="translate(0,0)" fill="rgb(0,0,0)" d="M 1514.35 1261.97 C 1509.56 1263.75 1507.11 1264.64 1502.87 1261.21 C 1498.08 1250.9 1500.48 1135.25 1500.63 1116.41 L 1500.67 985.79 L 1500.66 846.302 C 1500.66 834.043 1499.7 783.577 1502.27 774.352 C 1505.57 771.565 1505.23 772.448 1510.43 771.858 C 1512.76 774.421 1514.28 775.247 1514.36 778.966 C 1514.91 803.412 1514.7 828.532 1514.68 852.931 L 1514.67 996.671 L 1514.67 1171.87 C 1514.68 1197.48 1514.66 1223.1 1514.87 1248.71 C 1514.9 1253.13 1514.93 1257.58 1514.35 1261.97 z"/>
<path transform="translate(0,0)" fill="rgb(239,199,86)" d="M 448.946 771.14 C 459.598 771.029 487.443 768.152 493.4 775.499 C 494.838 787.312 493.931 820.442 493.927 833.625 L 493.931 950.613 L 493.928 1151.49 C 493.928 1185.6 493.953 1219.95 493.821 1254.07 C 493.806 1257.77 493.647 1259.3 491.74 1262.33 C 479.957 1262.68 457.638 1262.82 446.406 1261.8 C 445.058 1243.7 446.006 1211.63 446.011 1192.73 L 445.999 1063.83 L 445.98 877.959 C 445.98 845.346 445.865 812.543 446.173 779.929 C 446.213 775.689 446.452 774.357 448.946 771.14 z"/>
<path transform="translate(0,0)" fill="rgb(0,0,0)" d="M 845.484 773.523 C 852.331 773.361 859.478 773.537 866.351 773.612 L 866.179 1014.91 L 866.103 1128.56 C 866.101 1137.55 867.495 1176.44 865.193 1181.25 L 862.25 1181.78 L 841.453 1182.01 C 840.699 1160.46 841.259 1135.35 841.228 1113.61 L 841.178 979.788 L 841.307 836.035 C 841.333 827.726 839.972 777.7 842.671 773.911 L 845.484 773.523 z"/>
<path transform="translate(0,0)" fill="rgb(0,0,0)" d="M 908.107 773.492 C 916.147 773.235 924.632 773.383 932.709 773.394 C 934.009 817.126 932.826 867.15 932.827 911.379 L 932.832 1181.77 L 907.892 1181.82 L 907.818 902.26 C 907.841 859.899 907.057 815.699 908.107 773.492 z"/>
<path transform="translate(0,0)" fill="rgb(0,0,0)" d="M 709.891 773.422 L 734.204 773.551 C 735.989 854.493 734.47 941.981 734.33 1023.21 L 734.451 1120.53 C 734.534 1140.35 735.134 1162.34 734.25 1181.85 L 709.812 1181.87 C 708.916 1152.36 709.38 1121.14 709.378 1091.48 L 709.385 940.885 L 709.402 834.104 C 709.401 815.372 708.735 791.815 709.891 773.422 z"/>
<path transform="translate(0,0)" fill="rgb(0,0,0)" d="M 1404.68 773.479 C 1407.24 773.412 1406.32 773.21 1408.68 774.17 C 1410.86 778.894 1409.82 883.452 1409.83 895.308 L 1410 1181.62 L 1390.75 1181.72 C 1388.45 1181.79 1388.57 1181.82 1386.38 1181.12 C 1383.63 1175.37 1385.09 1142.28 1385.08 1134 L 1385 1030.6 L 1385.23 773.73 L 1404.68 773.479 z"/>
<path transform="translate(0,0)" fill="rgb(0,0,0)" d="M 1186.53 773.491 L 1207.67 773.468 C 1208.62 803.984 1207.85 837.928 1207.87 868.823 L 1207.9 1049.84 C 1207.89 1064.58 1209.26 1174.61 1207.02 1181.12 L 1205.09 1181.76 L 1183.26 1181.77 C 1182.32 1144.77 1181.76 779.996 1184.18 774.133 L 1186.53 773.491 z"/>
<path transform="translate(0,0)" fill="rgb(0,0,0)" d="M 642.638 773.326 L 666.982 773.304 L 667.091 1181.86 L 642.64 1181.97 C 641.849 1157.47 642.324 1131.19 642.336 1106.56 L 642.337 977.803 L 642.291 848.415 C 642.287 823.866 641.815 797.657 642.638 773.326 z"/>
<path transform="translate(0,0)" fill="rgb(0,0,0)" d="M 1316.98 773.428 C 1324.93 773.241 1333.28 773.419 1341.26 773.466 L 1341.16 1045 C 1341.16 1087.37 1342.78 1140.09 1341.12 1181.7 L 1316.87 1181.73 C 1315.22 1105.87 1316.73 1024.84 1316.72 948.478 L 1316.56 836.573 C 1316.55 816.159 1316.1 793.561 1316.98 773.428 z"/>
<path transform="translate(0,0)" fill="rgb(0,0,0)" d="M 1117.13 773.435 C 1125.11 773.313 1133.25 773.373 1141.25 773.35 L 1141.24 1181.74 L 1116.93 1181.75 C 1115.35 1110.56 1116.86 1033.63 1116.82 961.985 L 1116.74 844.056 C 1116.73 821.064 1116.3 796.289 1117.13 773.435 z"/>
<path transform="translate(0,0)" fill="rgb(0,0,0)" d="M 1453.75 772.877 C 1458.67 772.653 1459.99 772.029 1463.34 775.8 C 1464.77 782.249 1464.28 802.02 1464.29 809.898 L 1464.29 873.592 L 1464.21 1129.5 L 1464.34 1221.06 C 1464.38 1232.85 1464.6 1247 1463.94 1258.96 C 1463.8 1261.6 1461.09 1262.89 1458.83 1264.6 C 1453.39 1262.23 1451.63 1261.43 1451.63 1255.11 C 1451.6 1215.27 1451.48 1175.4 1451.49 1135.57 L 1451.34 903.408 C 1451.31 863.453 1451.23 823.43 1451.37 783.475 C 1451.39 778.962 1451.66 776.842 1453.75 772.877 z"/>
<path transform="translate(0,0)" fill="rgb(0,0,0)" d="M 1478.45 772.878 L 1485.36 772.807 C 1491.37 777.035 1489.37 803.856 1489.36 812.301 L 1489.44 877.515 L 1489.38 1150.19 L 1489.35 1222.74 C 1489.33 1230.01 1490.43 1258.16 1487.18 1263.47 C 1483.85 1263.82 1483.75 1264 1480.41 1263.1 C 1476.64 1259.96 1475.96 1253.99 1476.07 1249.3 C 1476.67 1225.24 1476.61 1201.19 1476.64 1177.13 L 1476.66 999.088 C 1476.72 927.172 1476.4 855.073 1476.73 783.151 C 1476.75 779.066 1476.84 776.666 1478.45 772.878 z"/>
<path transform="translate(0,0)" fill="rgb(0,0,0)" d="M 533.683 772.913 C 538.372 772.927 539.062 772.387 542.361 774.618 C 544.106 778.401 544.47 782.212 544.447 786.371 C 544.237 824.791 544.404 863.308 544.335 901.718 L 544.233 1099.01 L 544.157 1205.01 C 544.173 1218.42 545.028 1247.49 543.832 1259.95 C 541.524 1263.41 542.136 1262.35 537.546 1264.23 C 534.335 1262.86 534.349 1263.11 532.258 1260.39 C 530.916 1253.5 531.461 1225 531.457 1216.26 L 531.507 1117.58 C 531.655 1006.38 531.543 895.083 531.455 783.876 C 531.451 778.895 531.571 777.279 533.683 772.913 z"/>
<path transform="translate(0,0)" fill="rgb(0,0,0)" d="M 558.532 772.861 C 561.046 772.821 568.39 772.159 568.491 776.134 C 569.635 821.169 569.167 866.422 569.161 911.496 L 569.117 1134.97 C 569.117 1174.62 569.175 1214.37 569.004 1254.03 C 568.987 1258.08 568.924 1260.13 566.995 1263.56 C 564.217 1263.84 558.142 1264.02 557.858 1260.88 C 555.304 1232.58 556.647 1193.08 556.673 1165.23 L 556.818 984.899 L 556.789 850.48 C 556.779 836.885 555.44 780.641 558.532 772.861 z"/>
<path transform="translate(0,0)" fill="rgb(0,0,0)" d="M 508.459 772.902 C 510.396 772.833 512.584 772.626 514.495 772.937 C 515.903 773.166 517.614 774.044 518.22 775.366 C 519.132 777.353 520.934 1254.03 517.793 1263.11 C 515.78 1263.17 512.847 1263.56 510.915 1263.06 C 509.637 1262.74 508.423 1262.24 507.904 1260.98 C 506.41 1257.34 506.824 1252.03 506.777 1248.07 C 505.565 1144.76 506.707 1041.3 506.722 937.979 C 506.725 915.623 504.57 783.157 508.459 772.902 z"/>
<path transform="translate(0,0)" fill="rgb(0,0,0)" d="M 1028.23 772.759 C 1031.79 772.767 1033.18 772.508 1036.47 773.968 C 1040.82 778.88 1039.15 817.74 1039.13 826.173 L 1038.99 928.084 L 1038.99 1127.59 C 1038.99 1160.8 1039.03 1194.14 1038.94 1227.34 C 1038.93 1231.45 1038.57 1232.76 1036.21 1235.91 C 1033.66 1235.92 1027.78 1236.06 1027.5 1233.31 C 1024.84 1207.43 1026.12 1170.01 1026.09 1144.73 L 1026.05 972.906 L 1026.06 846.965 C 1026.06 833.777 1024.58 781.449 1028.23 772.759 z"/>
<path transform="translate(0,0)" fill="rgb(0,0,0)" d="M 1003.56 772.659 C 1006.66 772.572 1006.96 772.668 1010.04 773.251 C 1017.12 779.056 1013.73 807.796 1013.71 817.396 L 1013.72 894.733 C 1013.61 1004.65 1013.65 1114.66 1013.69 1224.58 C 1013.69 1229.35 1013.78 1231.75 1011.4 1235.79 C 998.562 1235.91 1001.48 1230.08 1000.96 1218.68 C 1000.58 1210.3 1001.12 1201.35 1001.11 1192.89 L 1001 1109.79 L 1000.98 896.81 C 1000.99 858.887 1000.89 820.856 1001.19 782.935 C 1001.23 778.313 1001.45 776.629 1003.56 772.659 z"/>
<path transform="translate(0,0)" fill="rgb(0,0,0)" d="M 753.627 772.853 C 757.827 772.915 759.2 772.572 762.727 774.515 C 764.847 783.048 764.373 816.747 764.365 827.574 L 764.245 921.37 L 764.137 1087.87 C 764.118 1116.35 764.206 1145.07 763.917 1173.55 C 763.877 1177.52 763.515 1179.02 761.611 1182.37 C 756.271 1182.35 755.54 1182.7 751.878 1179.28 C 750.717 1171.87 751.194 1144.43 751.2 1135.7 L 751.252 1048.17 L 751.303 874.412 C 751.299 843.971 751.203 813.438 751.345 782.999 C 751.366 778.544 751.621 776.695 753.627 772.853 z"/>
<path transform="translate(0,0)" fill="rgb(0,0,0)" d="M 1053.31 772.691 C 1056.65 772.622 1057.19 772.413 1060.44 773.415 C 1067.29 779.692 1063.73 793.496 1063.9 802.072 C 1064.07 810.13 1064.1 818.32 1064.11 826.387 L 1064.28 936.378 L 1064.21 1095.62 C 1064.19 1122.1 1064.31 1149.05 1063.85 1175.55 C 1063.79 1178.97 1063 1180.22 1060.96 1182.77 C 1056.41 1182.63 1055.34 1182.44 1052.24 1179.75 C 1050.67 1174.04 1051.21 1143.66 1051.21 1135.73 L 1051.27 1040.68 L 1051.28 868.381 C 1051.27 854.487 1049.75 780.888 1053.31 772.691 z"/>
<path transform="translate(0,0)" fill="rgb(0,0,0)" d="M 1228.24 772.801 C 1231.14 772.804 1232.15 772.906 1235.03 773.308 C 1236.18 774.14 1237.71 774.735 1237.98 776.242 C 1239.88 786.524 1239.12 797.826 1239.09 808.377 C 1238.76 929.5 1239.22 1050.64 1238.94 1171.76 C 1238.93 1176.01 1238.98 1178.52 1236.87 1182.32 C 1232.87 1182.28 1230.44 1182.65 1227.44 1180.2 C 1225.01 1173.55 1226.07 1106.14 1226.07 1093.92 L 1226.09 908.124 C 1226.11 887.591 1224.43 782.544 1228.24 772.801 z"/>
<path transform="translate(0,0)" fill="rgb(0,0,0)" d="M 947.686 772.807 C 951.247 772.785 952.178 772.561 955.505 774.004 C 956.568 775.155 957.771 776.653 957.801 778.219 C 958.256 802.132 957.999 832.416 957.997 855.909 L 957.981 1104.24 C 957.994 1116.84 960.493 1174.35 955.761 1182.27 C 952.513 1182.19 945.936 1182.59 945.577 1177.82 C 944.808 1167.6 945.107 1157.06 945.099 1146.78 L 945.109 1066.43 L 945.154 877.924 C 945.165 846.004 945.077 813.827 945.32 781.89 C 945.352 777.72 945.677 776.322 947.686 772.807 z"/>
<path transform="translate(0,0)" fill="rgb(0,0,0)" d="M 1253.77 772.937 C 1258.76 772.713 1259.49 772.601 1263.18 775.167 C 1265.64 782.627 1265.94 1172.38 1263.32 1181.84 C 1259 1182.76 1253.95 1183.48 1252.6 1178.13 C 1249.96 1167.67 1251.89 1154.03 1251.82 1143.32 L 1251.88 930.834 L 1251.8 831.235 C 1251.79 821.106 1250.44 780.509 1253.77 772.937 z"/>
<path transform="translate(0,0)" fill="rgb(0,0,0)" d="M 1093.7 772.893 C 1098.73 772.737 1099.58 772.415 1102.86 775.073 C 1105.14 779.469 1104.28 844.125 1104.27 855.621 L 1104.24 999.328 L 1104.3 1113.13 C 1104.33 1133.35 1105.15 1159.28 1103.86 1178.96 C 1101.97 1181.8 1100.95 1181.54 1097.32 1183.3 C 1096.24 1182.47 1092.51 1179.97 1092.49 1179.03 C 1090.25 1047.12 1091.86 914.485 1091.5 782.404 C 1091.48 777.823 1092.17 776.168 1093.7 772.893 z"/>
<path transform="translate(0,0)" fill="rgb(0,0,0)" d="M 1424.44 772.733 C 1427.92 772.876 1430.21 772.624 1433.25 774.292 C 1435.54 784.256 1434.88 815.747 1434.89 827.925 L 1434.9 919.147 L 1434.93 1088.01 C 1434.94 1116.46 1435.05 1145.12 1434.86 1173.58 C 1434.83 1177.52 1434.53 1178.98 1432.66 1182.31 C 1429.52 1182.29 1422.62 1182.57 1422.51 1178.05 C 1421.67 1143.56 1422.13 1107.82 1422.13 1073.4 L 1422.11 880.826 C 1422.11 848.157 1422.01 815.305 1422.22 782.627 C 1422.25 778.207 1422.53 776.591 1424.44 772.733 z"/>
<path transform="translate(0,0)" fill="rgb(0,0,0)" d="M 1160.38 772.646 C 1164.37 772.726 1164.3 772.624 1168 773.933 C 1172.44 778.835 1170.78 801.109 1170.79 809.228 L 1170.8 887.864 L 1170.79 1076.07 C 1170.8 1108.31 1170.84 1140.66 1170.7 1172.9 C 1170.68 1177.1 1170.59 1178.69 1168.51 1182.19 C 1164.36 1182.18 1163.35 1182.47 1159.73 1180.76 C 1157.27 1175.04 1157.98 1140.36 1157.98 1131.72 L 1158 1038.94 L 1157.98 869.175 C 1157.97 840.03 1157.85 810.608 1158.08 781.448 C 1158.12 777.479 1158.47 775.986 1160.38 772.646 z"/>
<path transform="translate(0,0)" fill="rgb(0,0,0)" d="M 818.516 772.811 C 824.094 772.92 825.441 772.287 828.619 777.058 C 829.719 789.894 828.976 815.491 828.966 829.296 L 828.901 928.107 L 828.831 1088.67 C 828.842 1116.74 828.946 1144.9 828.842 1172.97 C 828.827 1176.96 828.761 1178.79 826.85 1182.22 C 823 1182.12 820.451 1182.68 817.441 1180.44 C 815.612 1169.16 816.162 1143.47 816.143 1130.86 L 816.097 1042.37 L 816.087 876.637 C 816.077 859.797 814.396 782.3 818.516 772.811 z"/>
<path transform="translate(0,0)" fill="rgb(0,0,0)" d="M 881.633 772.846 C 885.645 773 887.476 772.543 890.603 774.961 C 892.493 786.788 891.94 811.608 891.93 824.279 L 891.813 907.614 L 891.585 1072.7 C 891.588 1086.04 893.226 1173.43 889.737 1182.17 C 884.99 1182.31 883.347 1182.88 879.887 1179.38 C 878.413 1173.7 878.941 1143.53 878.939 1135.56 L 878.939 1045.37 L 878.963 871.584 C 878.967 841.698 878.842 811.414 879.228 781.505 C 879.278 777.597 879.717 776.118 881.633 772.846 z"/>
<path transform="translate(0,0)" fill="rgb(0,0,0)" d="M 594.202 772.67 C 597.394 772.7 598.356 772.854 601.421 773.32 C 603.321 775.043 604.882 775.977 604.908 779.073 C 605.072 798.412 604.982 818.214 604.967 837.526 L 604.954 957.307 L 604.974 1100.34 C 605.003 1125.28 605.215 1150.58 604.812 1175.52 C 604.757 1178.92 604.007 1180.15 602.018 1182.73 C 599.486 1182.59 593.707 1182.4 593.436 1179.5 C 591.214 1155.74 592.401 1123.38 592.398 1099.88 L 592.197 881.867 L 592.115 813.195 C 592.11 804.045 590.924 780.05 594.202 772.67 z"/>
<path transform="translate(0,0)" fill="rgb(0,0,0)" d="M 972.375 772.843 C 974.989 772.784 976.454 772.944 979.034 773.177 C 980.779 774.345 981.391 774.258 981.983 775.892 C 982.965 778.604 983.199 783.035 983.189 785.991 C 982.929 860.321 983.015 934.743 983.03 1009.07 L 983.053 1117.26 C 983.056 1128.01 984.422 1175.71 980.847 1182.59 C 976.653 1182.52 974.556 1182.77 971.406 1180.17 C 969.995 1175.08 970.287 1146.4 970.278 1139.1 L 970.278 1060.12 L 970.392 881.971 C 970.388 865.008 968.692 783.053 972.375 772.843 z"/>
<path transform="translate(0,0)" fill="rgb(0,0,0)" d="M 1293.65 772.827 C 1297.33 772.663 1298.15 772.419 1301.67 773.775 C 1303.73 775.997 1304.25 777.326 1304.25 780.447 C 1304.25 806.832 1304.11 833.351 1304.1 859.727 L 1304.17 1022.56 L 1304.03 1119.93 C 1304.13 1138.49 1304.62 1157.8 1303.94 1176.37 C 1303.79 1180.36 1302.97 1180.1 1299.99 1183.23 C 1295.41 1181.84 1294.76 1182.06 1292.14 1178.85 C 1290.82 1166.7 1291.43 1141.25 1291.42 1128.42 L 1291.48 1034.3 L 1291.38 868.194 C 1291.37 839.737 1291.36 811.175 1291.49 782.715 C 1291.51 778.163 1291.76 776.855 1293.65 772.827 z"/>
<path transform="translate(0,0)" fill="rgb(0,0,0)" d="M 1356.45 772.68 C 1361.31 772.82 1362.72 772.352 1365.86 776.255 C 1367.21 788.598 1366.61 812.404 1366.62 825.712 L 1366.64 918.603 L 1366.45 1073.52 C 1366.48 1089.53 1368.64 1170.93 1365.25 1181.83 C 1361.53 1182.2 1358.15 1182.8 1355.2 1180.4 C 1353.43 1172.98 1353.9 1146.23 1353.9 1137 L 1353.88 1053.34 L 1353.88 874.113 C 1353.88 843.497 1353.8 812.728 1353.97 782.108 C 1353.99 777.902 1354.38 776.193 1356.45 772.68 z"/>
<path transform="translate(0,0)" fill="rgb(0,0,0)" d="M 619.391 772.539 C 622.608 772.427 622.888 772.512 626.083 773.095 C 632.908 778.418 630.003 794.245 630.048 802.472 C 630.086 809.267 629.891 816.312 629.9 823.145 L 629.973 926.658 L 629.928 1091.28 C 629.932 1118.96 630.267 1146.89 629.851 1174.57 C 629.789 1178.67 629.301 1179.79 626.826 1182.88 C 623.198 1182.47 621.748 1182.61 618.686 1180.58 C 615.431 1170.47 617.435 1081.24 617.408 1063.53 L 617.42 872.908 C 617.436 842.802 617.32 812.612 617.32 782.508 C 617.32 778.182 617.571 776.391 619.391 772.539 z"/>
<path transform="translate(0,0)" fill="rgb(0,0,0)" d="M 788.416 772.9 C 793.478 772.883 794.491 772.702 797.95 775.571 C 799.945 780.369 799.019 852.029 799.021 861.315 L 799.089 1091.42 L 799.09 1150.33 C 799.086 1156.86 799.574 1173.79 798.367 1179.33 C 795.416 1182.48 795.876 1181.59 791.164 1183.1 C 785.388 1178.7 786.528 1175.93 786.537 1168.87 C 786.704 1040.8 786.194 912.719 786.538 784.648 C 786.55 780.104 786.721 777.17 788.416 772.9 z"/>
<path transform="translate(0,0)" fill="rgb(0,0,0)" d="M 686.362 772.794 C 688.182 772.774 690.779 772.5 692.509 772.987 C 693.85 773.364 695.34 774.13 695.961 775.447 C 698.617 781.081 697.473 1142.68 697.013 1170.6 C 696.945 1174.75 696.911 1178.16 695.439 1182.11 C 690.706 1182.41 689.015 1182.95 685.467 1179.62 C 683.737 1152.48 684.674 1116.13 684.654 1088.53 L 684.622 930.73 C 684.636 911.325 682.941 782.408 686.362 772.794 z"/>
</svg>