<svg version="1.1" xmlns="http://www.w3.org/2000/svg" style="display: block;" viewBox="0 0 2048 2048" width="1024" height="1024" preserveAspectRatio="none">
<path transform="translate(0,0)" fill="rgb(243,243,239)" d="M 0 0 L 2048 0 L 2048 2048 L 0 2048 L 0 0 z"/>
<path transform="translate(0,0)" fill="rgb(129,160,186)" d="M 1001.05 459.264 C 1325.17 446.503 1598.29 698.876 1611.13 1023 C 1623.96 1347.12 1371.65 1620.3 1047.52 1633.2 C 723.302 1646.11 450.022 1393.7 437.185 1069.48 C 424.348 745.254 676.817 472.029 1001.05 459.264 z"/>
<path transform="translate(0,0)" fill="rgb(0,0,0)" d="M 1000.74 471.595 C 1318.05 458.669 1585.76 705.427 1598.68 1022.74 C 1611.59 1340.05 1364.83 1607.75 1047.52 1620.66 C 730.217 1633.57 462.528 1386.81 449.611 1069.52 C 436.695 752.216 683.44 484.521 1000.74 471.595 z"/>
<path transform="translate(0,0)" fill="rgb(129,160,186)" d="M 1004.21 493.878 C 1309.36 482.853 1565.62 721.379 1576.48 1026.54 C 1587.34 1331.69 1348.68 1587.83 1043.51 1598.52 C 738.586 1609.21 482.687 1370.77 471.837 1065.84 C 460.986 760.921 699.289 504.893 1004.21 493.878 z"/>
<path transform="translate(0,0)" fill="rgb(243,243,239)" d="M 1016.29 516.465 C 1308.66 512.103 1549.32 745.374 1554.07 1037.74 C 1558.81 1330.1 1325.86 1571.07 1033.5 1576.2 C 740.598 1581.34 499.086 1347.86 494.329 1054.95 C 489.572 762.038 723.374 520.835 1016.29 516.465 z"/>
<path transform="translate(0,0)" fill="rgb(129,160,186)" d="M 996.604 527.632 C 1283.35 512.437 1528.05 732.737 1542.94 1019.5 C 1557.84 1306.26 1337.28 1550.73 1050.5 1565.32 C 764.149 1579.89 520.124 1359.74 505.252 1073.4 C 490.379 787.06 710.282 542.805 996.604 527.632 z"/>
<path transform="translate(0,0)" fill="rgb(243,243,239)" d="M 1012.8 536.893 C 1294.21 530.628 1527.42 753.677 1533.69 1035.09 C 1539.95 1316.5 1316.91 1549.71 1035.5 1555.98 C 754.08 1562.25 520.867 1339.2 514.599 1057.78 C 508.332 776.37 731.384 543.158 1012.8 536.893 z"/>
<path transform="translate(0,0)" fill="rgb(168,201,220)" d="M 1303.71 1044.45 C 1299.19 1033.27 1291.64 1021.52 1285.11 1009.59 C 1262.78 968.806 1260.9 904.075 1303.46 875.531 C 1305.6 874.092 1310.23 873.959 1312.69 875.311 C 1322.7 880.806 1321.96 894.527 1325.04 904.1 C 1331.31 930.708 1353.94 937.537 1366.78 959.416 C 1369.66 964.326 1371.91 971.789 1373.76 977.349 C 1399.08 958.856 1416.87 966.127 1443.39 954.392 C 1457.75 951.75 1467.74 926.454 1476.95 922.469 C 1498.14 915.573 1499.05 940.923 1497.78 953.023 C 1491.68 1012.55 1443.87 1047.01 1391.96 1066.94 C 1370.92 1075.02 1370.9 1106.76 1364.82 1126.27 C 1338.49 1210.86 1286.48 1268.59 1208.83 1308.4 C 1199.76 1312.42 1191.71 1316 1182.34 1319.39 C 1164.77 1325.79 1150.91 1330.12 1132.58 1334.05 C 1128.27 1334.98 1104.27 1339.55 1101.61 1340.59 C 1096.04 1362.22 1069.76 1355.12 1054.16 1351.72 C 1030.07 1346.46 1008.34 1324.8 987.057 1318.51 C 973.571 1321.44 963.936 1327.93 950.968 1334.89 C 923.985 1349.37 878.441 1369.72 849.408 1350.13 C 846.937 1348.46 846.09 1346.39 845.889 1343.6 C 851.864 1333.9 884.42 1340.83 898.953 1333.52 C 828.624 1310.7 777.22 1271.08 735.42 1210.29 C 734.185 1213.55 733.612 1216.83 730.154 1217.87 C 727.93 1213.39 729.667 1208.14 730.829 1203.47 C 723.887 1191.73 717.239 1179.81 710.891 1167.74 C 707.273 1173.43 705.18 1180.07 699.317 1183.4 L 698.411 1182.34 C 700.251 1173.07 703.757 1168.99 708.957 1161.04 C 704.759 1149.76 701.818 1140.53 698.384 1129.01 C 691.063 1134.55 681.971 1141.98 673.955 1146 C 680.233 1133.86 686.502 1130.11 697.389 1122.01 C 693.789 1097.21 694.703 1075.71 703.354 1051.84 C 714.272 1020.91 737.089 995.62 766.737 981.588 C 798.864 966.769 832.627 966.443 865.5 978.763 C 871.277 971.838 889.717 950.639 899.231 950.799 L 899.34 949.949 L 899.436 950.042 C 898.658 954.301 877.876 975.386 872.93 981.286 C 878.277 984.31 883.986 987.957 889.271 991.2 C 895.831 986.815 928.727 966.589 935.055 970.201 C 933.174 974.749 902.852 991.789 896.379 995.832 C 901.226 1000.55 906.2 1005.87 910.94 1010.75 C 919.325 1007.44 949.705 998.552 957.691 1003.05 C 954.506 1006.93 924.351 1014.5 915.865 1017.78 C 928.434 1039.17 937.097 1037.3 959.902 1032.44 C 1027.07 885.497 1196.95 934.671 1131.05 978.673 C 1128.11 991.206 1124.91 992.633 1114.16 998.866 C 1110.87 1012.54 1106.78 1014.49 1095.23 1021.16 C 1115.03 1024.9 1123.49 1027.85 1141.83 1034.97 C 1177.68 1048.9 1213.96 1075.02 1253.64 1070.87 C 1274.17 1068.73 1290.66 1060.09 1303.71 1044.45 z"/>
<path transform="translate(0,0)" fill="rgb(0,0,0)" d="M 1303.71 1044.45 C 1299.19 1033.27 1291.64 1021.52 1285.11 1009.59 C 1262.78 968.806 1260.9 904.075 1303.46 875.531 C 1305.6 874.092 1310.23 873.959 1312.69 875.311 C 1322.7 880.806 1321.96 894.527 1325.04 904.1 C 1331.31 930.708 1353.94 937.537 1366.78 959.416 C 1369.66 964.326 1371.91 971.789 1373.76 977.349 C 1399.08 958.856 1416.87 966.127 1443.39 954.392 C 1457.75 951.75 1467.74 926.454 1476.95 922.469 C 1498.14 915.573 1499.05 940.923 1497.78 953.023 C 1491.68 1012.55 1443.87 1047.01 1391.96 1066.94 C 1370.92 1075.02 1370.9 1106.76 1364.82 1126.27 C 1338.49 1210.86 1286.48 1268.59 1208.83 1308.4 C 1199.76 1312.42 1191.71 1316 1182.34 1319.39 C 1164.77 1325.79 1150.91 1330.12 1132.58 1334.05 C 1128.27 1334.98 1104.27 1339.55 1101.61 1340.59 C 1092.11 1340.67 1068.97 1336.62 1060.88 1331.34 C 1091.42 1329.83 1147.46 1316.48 1176.06 1306.07 C 1248.82 1279.82 1307.96 1225.42 1340.2 1155.11 C 1348.83 1136.48 1360.2 1101.14 1365.18 1079.22 C 1364.44 1077.19 1363.81 1075.48 1363.3 1074.07 C 1367.01 1064.17 1404.19 1048.31 1414.91 1043.11 C 1453.91 1024.18 1489.58 985.953 1486.52 939.946 C 1486.35 937.433 1484.93 935.344 1482.89 933.95 C 1465.29 941.385 1458.78 995.022 1440.18 994.699 L 1439.19 993.066 C 1440.79 988.692 1445.89 982.245 1448.42 977.797 C 1451.73 971.999 1452.95 968.143 1455.04 961.844 C 1445.97 967.46 1441.17 969.066 1431.11 972.272 C 1427.22 981.64 1413.93 1001.44 1403.03 1001.59 C 1403.36 996.33 1415.52 983.923 1420.25 974.612 C 1402.38 975.844 1380.25 981.466 1370.19 997.644 C 1366.61 1003.4 1364.89 1010.15 1359.11 1013.63 C 1351.71 1010.99 1361.77 992.314 1363.89 987.815 C 1359.26 966.101 1352.77 959.376 1336.65 945.346 C 1335.63 953.321 1337.33 968.571 1334.37 972.403 C 1326.33 966.21 1328.45 947.23 1329.82 938.35 C 1322.85 930.695 1320.92 927.335 1316.18 918.433 C 1313.9 926.017 1313.08 930.005 1311.78 937.688 C 1310.65 944.309 1312.85 954.915 1310.78 958.454 L 1309.09 958.092 C 1292.11 933.528 1323.35 897.364 1307.72 887.496 C 1284.52 894.398 1280.49 941.974 1283.64 961.789 C 1288.12 990.028 1300.04 1011.45 1313.24 1036.23 C 1315.02 1032.67 1316.95 1027.66 1320.7 1026.24 L 1321.96 1027.39 C 1322 1033.55 1319.87 1040.28 1316.43 1045.21 C 1270.27 1111.43 1203.81 1081.29 1146.15 1051.43 C 1131.62 1043.9 1107.57 1037.2 1091.24 1033.59 C 1040.27 1022.31 997.053 1033.66 947.756 1044.83 C 952.234 1049.68 964.54 1062.96 960.747 1069.67 C 955.197 1068.86 947.521 1055.95 942.071 1052.09 C 937.304 1048.71 935.715 1048.07 930.46 1045.75 C 933.68 1055.75 935.895 1066.05 937.073 1076.49 C 938.013 1085.41 938.305 1110.8 932.806 1117.61 C 929.566 1116.45 930.499 1108.74 930.729 1104.69 C 932.199 1078.79 922.227 1042.74 905.175 1022.67 L 904.274 1021.63 C 890.325 1027.16 881.692 1031.34 868.827 1039.03 C 868.903 1039.97 868.97 1040.92 869.029 1041.86 C 870.768 1070.89 851.136 1080.97 825.187 1081.23 C 822.982 1106.2 805.175 1132.97 777.491 1120.98 C 759.581 1146.97 750.958 1163.59 740.095 1193.04 C 783.485 1265.45 844.799 1302.77 923.474 1325.29 C 918.421 1328.26 904.708 1335 898.953 1333.52 C 828.624 1310.7 777.22 1271.08 735.42 1210.29 C 734.185 1213.55 733.612 1216.83 730.154 1217.87 C 727.93 1213.39 729.667 1208.14 730.829 1203.47 C 723.887 1191.73 717.239 1179.81 710.891 1167.74 C 707.273 1173.43 705.18 1180.07 699.317 1183.4 L 698.411 1182.34 C 700.251 1173.07 703.757 1168.99 708.957 1161.04 C 704.759 1149.76 701.818 1140.53 698.384 1129.01 C 691.063 1134.55 681.971 1141.98 673.955 1146 C 680.233 1133.86 686.502 1130.11 697.389 1122.01 C 693.789 1097.21 694.703 1075.71 703.354 1051.84 C 714.272 1020.91 737.089 995.62 766.737 981.588 C 798.864 966.769 832.627 966.443 865.5 978.763 C 871.277 971.838 889.717 950.639 899.231 950.799 L 899.34 949.949 L 899.436 950.042 C 898.658 954.301 877.876 975.386 872.93 981.286 C 878.277 984.31 883.986 987.957 889.271 991.2 C 895.831 986.815 928.727 966.589 935.055 970.201 C 933.174 974.749 902.852 991.789 896.379 995.832 C 901.226 1000.55 906.2 1005.87 910.94 1010.75 C 919.325 1007.44 949.705 998.552 957.691 1003.05 C 954.506 1006.93 924.351 1014.5 915.865 1017.78 C 928.434 1039.17 937.097 1037.3 959.902 1032.44 C 1027.07 885.497 1196.95 934.671 1131.05 978.673 C 1128.11 991.206 1124.91 992.633 1114.16 998.866 C 1110.87 1012.54 1106.78 1014.49 1095.23 1021.16 C 1115.03 1024.9 1123.49 1027.85 1141.83 1034.97 C 1177.68 1048.9 1213.96 1075.02 1253.64 1070.87 C 1274.17 1068.73 1290.66 1060.09 1303.71 1044.45 z"/>
<path transform="translate(0,0)" fill="rgb(168,201,220)" d="M 813.187 982.383 C 828.518 980.744 843.241 984.314 857.623 989.035 C 853.501 996.256 847.516 1010.48 843.548 1016.42 C 840.657 1020.75 826.072 1017.49 818.855 1025.59 C 817.915 1029.06 817.508 1027.81 818.717 1030.06 C 823.128 1030.28 832.536 1026.38 838.631 1025.31 L 840.015 1026.36 C 840.595 1029.62 840.004 1031 839.239 1034.21 L 838.942 1035.42 C 840.488 1038.44 839.362 1037.46 842.13 1038.77 C 844.587 1036.31 845.048 1031.52 847.453 1027.75 L 849.194 1027.61 L 849.922 1028.97 C 848.87 1032.26 848.473 1032.19 848.9 1035.43 C 853.161 1036.52 851.787 1032.92 857.025 1033.48 C 860.712 1040.76 855.414 1036.57 854.025 1043.47 C 857.753 1047.95 854.691 1042.35 860.297 1044.53 C 864.357 1064.69 840.004 1072.85 823.532 1070.79 C 817.871 1066.91 817.617 1066.75 813.137 1061.21 C 813.232 1053.99 815.105 1042 809.282 1037.3 C 797.93 1033.88 780.844 1050.97 783.995 1062.57 C 792.722 1072.93 826.584 1057.26 813.278 1096.11 C 808.289 1104.92 795.362 1118.17 784.154 1114.93 C 782.56 1110.81 785.831 1113.31 786.146 1107.49 L 785.047 1106.29 C 781.247 1107.2 781.82 1108.89 777.239 1110.7 C 771.692 1105.89 782.157 1101.8 780.754 1093.44 C 778.659 1091.55 778.451 1091.66 775.569 1091.34 L 769.479 1090.61 L 768.444 1089.03 C 769.009 1082.96 771.654 1075.9 773.582 1069.93 L 773.034 1069.13 L 771.048 1069.61 C 763.634 1077.13 762.611 1083.16 761.688 1092.96 C 739.231 1099.22 728.579 1104.23 708.37 1115.18 C 708.041 1113.31 707.779 1111.43 707.585 1109.55 C 700.329 1042.61 746.795 988.668 813.187 982.383 z"/>
<path transform="translate(0,0)" fill="rgb(0,0,0)" d="M 742.198 1057.15 C 749.783 1056.8 754.734 1056.73 759.529 1063.39 C 754.449 1070.34 736.246 1061.17 737.146 1085.76 C 737.738 1087.13 737.436 1087.9 737.367 1089.65 C 736.029 1090.54 736.236 1090.25 734.472 1090.52 C 731.062 1089.41 730.062 1087.88 728.48 1084.92 C 721.292 1071.44 729.659 1061.66 742.198 1057.15 z"/>
<path transform="translate(0,0)" fill="rgb(0,0,0)" d="M 819.464 992.301 C 820.203 992.345 820.941 992.398 821.678 992.462 C 829.19 993.14 831.169 994.303 835.887 999.957 C 832.986 1005.44 811.099 994.421 810.628 1017.22 C 811.02 1019.11 810.73 1018.95 810.232 1021.08 L 807.953 1022.35 L 805.616 1021.36 C 794.033 1008.73 804.486 995.159 819.464 992.301 z"/>
<path transform="translate(0,0)" fill="rgb(168,201,220)" d="M 1100.71 945.458 C 1110.83 945.723 1136.73 946.803 1134.4 961.537 C 1127 971.661 1110.53 967.525 1098.77 971.238 L 1099.02 973.405 L 1098.92 971.297 L 1099.42 973.592 C 1105.69 976.28 1117.63 975.891 1120.24 980.624 C 1114.67 992.464 1087.49 984.249 1083.1 992.819 L 1084.58 994.534 C 1089.39 996.106 1098.59 995.979 1104.08 996.145 C 1097.97 1008.05 1090.64 1009.39 1080.25 1019.32 C 1063.8 1016.93 1055.08 1016.9 1038.75 1017.25 C 1012.43 1019.09 998.406 1022.21 973.112 1028.02 C 1000.68 977.736 1042.97 947.853 1100.71 945.458 z"/>
<path transform="translate(0,0)" fill="rgb(168,201,220)" d="M 766.182 1112.81 C 768.554 1114.01 768.447 1114.32 770.012 1116.56 C 769.744 1123.56 759.947 1133.57 756.332 1139.68 C 748.107 1153.58 742.501 1168.65 735.916 1183.18 L 734.662 1183.3 L 732.093 1179.64 C 727.396 1171.52 724.036 1165.19 719.989 1156.73 C 732.307 1140.3 749.52 1124.72 766.182 1112.81 z"/>
<path transform="translate(0,0)" fill="rgb(168,201,220)" d="M 761.07 1100.06 C 763.091 1102.19 762.894 1102.21 763.82 1105.05 C 762.163 1108.89 753.739 1112.79 749.983 1115.99 C 738.547 1125.73 728.485 1136.86 718.42 1147.93 L 716.755 1147.62 C 713.368 1138.95 711.308 1131.79 709.216 1122.78 C 724.319 1113.54 744.448 1106.14 761.07 1100.06 z"/>
<path transform="translate(0,0)" fill="rgb(168,201,220)" d="M 885.223 1003.68 C 889.715 1005.64 895.411 1011.98 898.881 1015.59 C 890.122 1019.44 882.974 1023.03 874.524 1027.41 C 870.789 1029.79 870.384 1030.16 866.217 1031.38 L 866.875 1030.88 L 863.484 1029.13 L 863.197 1029.24 C 864.876 1020.71 878.439 1009.65 885.223 1003.68 z"/>
<path transform="translate(0,0)" fill="rgb(168,201,220)" d="M 864.889 991.458 C 869.406 993.523 874.667 996.879 879.018 999.462 C 872.513 1005.51 866.091 1011.65 859.752 1017.88 C 857.022 1020.84 854.966 1024.6 851.04 1022.47 C 849.914 1015.21 860.955 998.05 864.889 991.458 z"/>
<path transform="translate(0,0)" fill="rgb(129,160,186)" d="M 923.474 1325.29 C 923.924 1325.18 924.375 1325.07 924.826 1324.96 C 954.246 1312.32 976.166 1285.43 1010.68 1304.71 C 1022.3 1311.21 1047.44 1330.12 1060.88 1331.34 C 1068.97 1336.62 1092.11 1340.67 1101.61 1340.59 C 1096.04 1362.22 1069.76 1355.12 1054.16 1351.72 C 1030.07 1346.46 1008.34 1324.8 987.057 1318.51 C 973.571 1321.44 963.936 1327.93 950.968 1334.89 C 923.985 1349.37 878.441 1369.72 849.408 1350.13 C 846.937 1348.46 846.09 1346.39 845.889 1343.6 C 851.864 1333.9 884.42 1340.83 898.953 1333.52 C 904.708 1335 918.421 1328.26 923.474 1325.29 z"/>
<path transform="translate(0,0)" fill="rgb(0,0,0)" d="M 1055.13 1168.38 C 1081.6 1166.63 1101.22 1172.68 1117.99 1193.89 C 1135.74 1194.74 1138.02 1195.28 1148.57 1210.02 C 1164.24 1209.85 1168.23 1213.52 1177.61 1224.66 C 1199.17 1226.23 1206.72 1241.38 1193.55 1258.6 C 1177.33 1279.81 1140.46 1290.26 1114.84 1293.47 C 1072.16 1298.82 1033.89 1285.48 1000.8 1258.97 C 982.301 1259.6 972.196 1253.74 959.8 1240.73 L 960.672 1238.43 C 968.557 1239.26 978.355 1247.16 989.44 1249.77 L 990.795 1250.08 C 986.117 1244.32 977.386 1234.05 978 1226.45 L 979.522 1225.67 C 983.58 1226.92 985.812 1230.07 988.846 1233.28 C 1007.55 1252.44 1038.45 1271.72 1064.97 1277.23 C 1100.94 1284.7 1151.69 1281.83 1180.39 1255.82 C 1183.26 1253.22 1189.01 1245.58 1187.81 1242.15 C 1180.67 1221.73 1158.38 1255.3 1143.16 1245.19 L 1143.35 1243.56 C 1150.12 1237.78 1163.32 1237.74 1164.9 1229.7 C 1163.64 1226.92 1163.42 1227.03 1161.43 1225.14 C 1147.01 1211.44 1133.18 1239.25 1119.6 1226.7 L 1119.62 1225.21 C 1124.17 1221.23 1130.87 1221.82 1136.97 1217.52 C 1139.08 1207.45 1124.03 1203.19 1116.65 1206.16 C 1112.13 1207.99 1104.7 1210.27 1100.16 1207.98 L 1100.3 1206.24 C 1102.48 1202.73 1103.76 1202.48 1107.64 1200.43 L 1108.94 1199.76 C 1077.72 1166.94 1047.08 1183.31 1037.04 1175.52 L 1037.23 1173.37 C 1040.95 1169.5 1049.73 1169.05 1055.13 1168.38 z"/>
<path transform="translate(0,0)" fill="rgb(0,0,0)" d="M 765.819 1203.75 C 768.538 1205.02 776.863 1215.78 779.606 1219 C 788.907 1230 799.091 1240.22 810.059 1249.55 C 824.308 1261.69 839.18 1267.83 853.757 1278.9 C 855.233 1280.03 854.625 1281.3 854.561 1283.16 C 833.68 1280.75 761.788 1223.34 765.819 1203.75 z"/>
<path transform="translate(0,0)" fill="rgb(0,0,0)" d="M 856.211 1083.42 C 862.095 1087.01 861.806 1094.42 858.644 1099.66 C 851.475 1111.55 843.206 1116.7 830.295 1119.13 C 829.73 1118.83 827.687 1117.43 827.087 1117.04 L 827.115 1115.62 C 830.101 1113.28 833.579 1111.31 837.096 1109.92 C 848.84 1105.29 852.19 1094.78 856.211 1083.42 z"/>
<path transform="translate(0,0)" fill="rgb(0,0,0)" d="M 1240.15 1252.72 L 1241.72 1252.82 L 1242.84 1254.4 C 1241.63 1263.27 1205.83 1281.76 1197.23 1285.31 L 1194.49 1284.19 L 1193.87 1282.49 C 1195.85 1279.95 1202.8 1276.44 1205.94 1274.81 C 1218.32 1268.39 1229.03 1261.06 1240.15 1252.72 z"/>
<path transform="translate(0,0)" fill="rgb(0,0,0)" d="M 880.211 1292.84 C 887.05 1294.43 909.829 1301.37 916.306 1305.61 C 917.54 1306.42 916.98 1308.11 916.906 1310.15 C 907.857 1309.49 887.26 1303.98 880.526 1296.98 C 879.352 1295.76 879.953 1295.07 880.211 1292.84 z"/>
<path transform="translate(0,0)" fill="rgb(0,0,0)" d="M 1284.31 1208.65 L 1286.4 1210.06 L 1286.76 1212.42 C 1283.59 1220.61 1272.77 1230.67 1265.61 1235.6 C 1264.18 1234.14 1264.62 1234.62 1263.7 1232.7 C 1265.54 1226.5 1279.17 1213.85 1284.31 1208.65 z"/>
<path transform="translate(0,0)" fill="rgb(0,0,0)" d="M 1324.98 1150.61 C 1326.82 1151.92 1325.99 1151.18 1327.09 1153.48 C 1326.1 1161.41 1318.35 1174.55 1313.02 1180.23 L 1311.15 1177.42 C 1311.16 1171.46 1321.36 1155.81 1324.98 1150.61 z"/>
<path transform="translate(0,0)" fill="rgb(0,0,0)" d="M 798.182 1218.55 C 805.272 1219.08 818.546 1231.29 818.941 1238.44 C 810.79 1236.71 798.547 1227.57 798.182 1218.55 z"/>
<path transform="translate(0,0)" fill="rgb(0,0,0)" d="M 1221.44 1093.24 C 1228.01 1094.07 1241.15 1094.9 1245.59 1099.08 L 1245.58 1102.16 C 1239.44 1102.97 1225.98 1102.31 1221.4 1097.45 C 1220.28 1096.26 1221.1 1094.95 1221.44 1093.24 z"/>
<path transform="translate(0,0)" fill="rgb(0,0,0)" d="M 1110.94 647.387 C 1148.7 642.769 1183.04 669.656 1187.62 707.416 C 1192.2 745.177 1165.27 779.489 1127.51 784.025 C 1089.8 788.554 1055.55 761.681 1050.98 723.978 C 1046.41 686.276 1073.25 651.998 1110.94 647.387 z"/>
<path transform="translate(0,0)" fill="rgb(231,121,72)" d="M 1108.49 658.582 C 1139.98 652.613 1170.32 673.381 1176.15 704.893 C 1181.98 736.406 1161.08 766.653 1129.54 772.344 C 1098.2 777.999 1068.18 757.256 1062.38 725.939 C 1056.59 694.622 1077.2 664.513 1108.49 658.582 z"/>
<path transform="translate(0,0)" fill="rgb(243,243,239)" d="M 1086.42 687.867 C 1091.12 688.163 1094.06 688.147 1095.9 692.904 C 1094.77 700.922 1090.48 703.957 1089.32 711.161 C 1087.51 722.391 1094.02 727.842 1087.38 737.255 C 1068.75 737.833 1074.28 713.005 1077.47 701.606 C 1079.15 695.618 1081.96 692.116 1086.42 687.867 z"/>
<path transform="translate(0,0)" fill="rgb(243,243,239)" d="M 1105.27 669.342 C 1109.34 668.185 1113.57 670.531 1114.75 674.59 C 1115.93 678.648 1113.6 682.895 1109.55 684.09 C 1105.47 685.294 1101.19 682.949 1100 678.863 C 1098.82 674.777 1101.18 670.507 1105.27 669.342 z"/>
<path transform="translate(0,0)" fill="rgb(0,0,0)" d="M 803.739 792.387 C 841.473 787.76 875.758 814.74 880.134 852.504 C 884.51 890.267 857.303 924.373 819.511 928.498 C 782.072 932.584 748.355 905.687 744.02 868.276 C 739.685 830.866 766.358 796.97 803.739 792.387 z"/>
<path transform="translate(0,0)" fill="rgb(240,209,74)" d="M 801.749 803.508 C 833.021 797.792 862.995 818.543 868.651 849.826 C 874.308 881.108 853.499 911.043 822.206 916.64 C 790.997 922.221 761.161 901.481 755.52 870.283 C 749.878 839.084 770.562 809.209 801.749 803.508 z"/>
<path transform="translate(0,0)" fill="rgb(243,243,239)" d="M 780.596 830.774 C 784.598 830.875 785.617 830.982 788.851 833.186 C 792.446 840.769 785.471 844.626 783.753 852.964 C 781.528 863.757 787.559 873.311 778.584 880.912 C 762.861 880.821 767.638 857.708 770.201 847.99 C 772.142 840.627 775.263 836.034 780.596 830.774 z"/>
<path transform="translate(0,0)" fill="rgb(243,243,239)" d="M 796.863 814.595 C 799.296 812.976 802.429 812.851 804.983 814.269 C 807.538 815.688 809.087 818.413 808.998 821.334 C 808.91 824.255 807.198 826.881 804.563 828.143 C 800.864 829.913 796.427 828.521 794.401 824.957 C 792.375 821.392 793.45 816.867 796.863 814.595 z"/>
<path transform="translate(0,0)" fill="rgb(0,0,0)" d="M 1216.94 780.649 C 1254.6 778.634 1286.78 807.495 1288.86 845.152 C 1290.95 882.81 1262.14 915.042 1224.49 917.19 C 1186.74 919.344 1154.41 890.452 1152.32 852.7 C 1150.24 814.948 1179.18 782.669 1216.94 780.649 z"/>
<path transform="translate(0,0)" fill="rgb(190,209,70)" d="M 1216.23 791.573 C 1247.56 789.139 1275.03 812.359 1277.83 843.659 C 1280.64 874.96 1257.75 902.695 1226.48 905.874 C 1205.92 907.964 1185.83 898.84 1173.87 881.986 C 1161.92 865.132 1159.95 843.152 1168.71 824.44 C 1177.48 805.728 1195.63 793.174 1216.23 791.573 z"/>
<path transform="translate(0,0)" fill="rgb(243,243,239)" d="M 1190.18 820.628 C 1193.29 821.507 1193.7 821.962 1196.39 823.643 C 1200.26 830.919 1190.9 840.383 1190.69 847.894 C 1190.51 854.399 1193.24 859.452 1192.43 867.02 C 1190.87 870.435 1189.04 871.203 1185.92 873.326 C 1168.28 866.837 1175.77 830.193 1190.18 820.628 z"/>
<path transform="translate(0,0)" fill="rgb(243,243,239)" d="M 1204.36 803.272 C 1208.15 801.23 1212.88 802.668 1214.9 806.475 C 1216.91 810.281 1215.44 815 1211.62 816.987 C 1207.84 818.954 1203.17 817.501 1201.18 813.732 C 1199.19 809.964 1200.61 805.293 1204.36 803.272 z"/>
<path transform="translate(0,0)" fill="rgb(129,160,186)" d="M 766.296 1288.98 C 779.433 1288.63 796.311 1300.98 809.481 1306.31 C 818.863 1310.11 845.235 1311.99 848.922 1318.21 C 849.419 1324.73 845.906 1329.09 839.417 1329.87 C 815.65 1332.74 797.023 1324.98 777.417 1312.31 L 768.967 1307.41 C 756.259 1315.44 720.445 1345.93 704.6 1329.25 C 703.392 1325.14 703.288 1327.05 704.456 1323.3 C 711.133 1318.05 721.93 1318.69 730.837 1313.77 C 744.956 1305.96 751.593 1295.58 766.296 1288.98 z"/>
<path transform="translate(0,0)" fill="rgb(129,160,186)" d="M 1290.04 1272.22 C 1305.51 1271.48 1310.98 1283.29 1323.33 1289.89 C 1333.52 1295.34 1349.89 1294 1357.77 1301.59 C 1359.87 1307.16 1356.73 1310.17 1351.66 1312.32 C 1340 1317.27 1327.01 1313.83 1315.81 1309.21 C 1305.89 1304.33 1301.09 1297.85 1292.36 1292.43 C 1281.55 1285.72 1261.53 1309.66 1251.4 1297.03 C 1249.67 1284.66 1279.95 1274.08 1290.04 1272.22 z"/>
<path transform="translate(0,0)" fill="rgb(129,160,186)" d="M 1182.34 1319.39 C 1191.71 1316 1199.76 1312.42 1208.83 1308.4 C 1223.5 1315.72 1252.41 1309.6 1258.83 1319.47 C 1260.17 1342.4 1196.51 1332.15 1182.34 1319.39 z"/>
<path transform="translate(0,0)" fill="rgb(129,160,186)" d="M 1192.74 1354.12 C 1198.22 1353.75 1234.49 1358.01 1240.01 1362.81 C 1242.09 1364.63 1241.62 1365.97 1241.53 1368.26 C 1239.4 1371.95 1238.62 1372.11 1234.83 1374.44 C 1224.01 1376.18 1216.99 1375.39 1206.18 1373.51 C 1195.89 1371.73 1175.62 1365.78 1192.74 1354.12 z"/>
<path transform="translate(0,0)" fill="rgb(129,160,186)" d="M 966.585 1360.3 C 973.022 1359.42 976.799 1360.36 980.711 1365.56 C 981.623 1375.48 954.974 1378.85 946.538 1381.36 C 940.956 1382.9 935.416 1384.13 930.301 1380.65 C 927.518 1367.82 957.552 1361.74 966.585 1360.3 z"/>
<path transform="translate(0,0)" fill="rgb(129,160,186)" d="M 824.692 1363.19 C 833.051 1362.61 865.498 1362.49 865.679 1373.82 C 863.531 1377.45 863.284 1377.5 859.611 1379.8 C 850.641 1380.38 820.501 1381.73 819.232 1370.08 C 820.746 1366.04 821.14 1365.95 824.692 1363.19 z"/>
<path transform="translate(0,0)" fill="rgb(129,160,186)" d="M 1020.8 1369.01 C 1028.12 1368.54 1051.29 1372.42 1058.17 1376.14 C 1060.71 1377.52 1060.84 1379.04 1061.37 1381.31 C 1060.4 1385.04 1059.74 1385.27 1056.79 1387.69 C 1047.24 1389.87 1020.01 1387.01 1017.05 1375.58 C 1017.71 1372 1018.37 1371.64 1020.8 1369.01 z"/>
<path transform="translate(0,0)" fill="rgb(129,160,186)" d="M 1275.76 1344.02 C 1284 1343.6 1311.79 1343.1 1311.37 1354.44 C 1309.39 1358.2 1308.97 1358.28 1305.37 1360.81 C 1296.71 1361.4 1269.31 1362.81 1269.76 1350.51 C 1271.85 1346.63 1272.04 1346.57 1275.76 1344.02 z"/>
<path transform="translate(0,0)" fill="rgb(129,160,186)" d="M 772.587 1345.16 C 779.041 1344.74 783.82 1347.32 783.453 1354.21 C 779.204 1360.56 766.49 1362.67 758.779 1364.77 C 754.471 1365.37 752.145 1364.7 748.193 1363.37 L 746.836 1360.23 C 749.878 1349.67 763.362 1347.19 772.587 1345.16 z"/>
<path transform="translate(0,0)" fill="rgb(129,160,186)" d="M 1128.74 1359.38 C 1132.7 1358.86 1137.12 1359.78 1140.12 1362.41 C 1141.64 1373.05 1123.49 1375.78 1116.23 1376.89 C 1111.42 1377.18 1105.04 1376.53 1102.78 1371.81 C 1105.5 1361.58 1120.1 1360.48 1128.74 1359.38 z"/>
</svg>